<svg xmlns="http://www.w3.org/2000/svg" viewBox="0 0 256 256" fill="none">
  <defs>
    <linearGradient id="g" x1="32" y1="24" x2="220" y2="228" gradientUnits="userSpaceOnUse">
      <stop stop-color="#72F6D5"/>
      <stop offset="1" stop-color="#6DA9FF"/>
    </linearGradient>
  </defs>
  <rect x="20" y="20" width="216" height="216" rx="56" fill="#091221"/>
  <rect x="20" y="20" width="216" height="216" rx="56" stroke="rgba(255,255,255,.14)"/>
  <path d="M126 44l18 54h34l-28 18 12 50-36-28-36 28 12-50-28-18h34l18-54z" fill="url(#g)" opacity=".24"/>
  <path d="M62 170c18-40 44-64 66-64s48 24 66 64" stroke="url(#g)" stroke-width="12" stroke-linecap="round"/>
  <path d="M128 62l14 42h25l-21 14 9 36-27-21-27 21 9-36-21-14h25l14-42z" fill="url(#g)"/>
</svg>
